<?xml version="1.0" encoding="UTF-8"?>
<svg width="24px" height="24px" viewBox="0 0 24 24" version="1.1" xmlns="http://www.w3.org/2000/svg" xmlns:xlink="http://www.w3.org/1999/xlink">
    <g id="Icon-/-Misc---Backspace" stroke="none" stroke-width="1" fill="none" fill-rule="evenodd">
        <rect id="bounds" x="0" y="0" width="24" height="24"></rect>
        <path d="M21.795,3 L6.795,3 C6.105,3 5.565,3.35 5.205,3.88 L0.165,11.45 C-0.055,11.79 -0.055,12.22 0.165,12.56 L5.205,20.12 C5.565,20.64 6.105,21 6.795,21 L21.795,21 C22.895,21 23.795,20.1 23.795,19 L23.795,5 C23.795,3.9 22.895,3 21.795,3 Z M18.095,16.3 C17.705,16.69 17.075,16.69 16.685,16.3 L13.795,13.41 L10.905,16.3 C10.515,16.69 9.885,16.69 9.495,16.3 C9.105,15.91 9.105,15.28 9.495,14.89 L12.385,12 L9.495,9.11 C9.105,8.72 9.105,8.09 9.495,7.7 C9.885,7.31 10.515,7.31 10.905,7.7 L13.795,10.59 L16.685,7.7 C17.075,7.31 17.705,7.31 18.095,7.7 C18.485,8.09 18.485,8.72 18.095,9.11 L15.205,12 L18.095,14.89 C18.475,15.27 18.475,15.91 18.095,16.3 Z" fill="#000000" fill-rule="nonzero"></path>
    </g>
</svg>