<?xml version="1.0" encoding="UTF-8"?>
<svg width="24px" height="24px" viewBox="0 0 24 24" version="1.1" xmlns="http://www.w3.org/2000/svg" xmlns:xlink="http://www.w3.org/1999/xlink">
    <!-- Generator: Sketch 61.2 (89653) - https://sketch.com -->
    <title>Icon / Face ID</title>
    <desc>Created with Sketch.</desc>
    <g id="Icon-/-Face-ID" stroke="none" stroke-width="1" fill="none" fill-rule="evenodd">
        <rect id="bounds" x="0" y="0" width="24" height="24"></rect>
        <path d="M21,17 C21.5128358,17 21.9355072,17.3860402 21.9932723,17.8833789 L22,18 L22,21 C22,21.5128358 21.6139598,21.9355072 21.1166211,21.9932723 L21,22 L18,22 C17.4477153,22 17,21.5522847 17,21 C17,20.4871642 17.3860402,20.0644928 17.8833789,20.0067277 L18,20 L20,20 L20,18 L20.0067277,17.8833789 C20.0644928,17.3860402 20.4871642,17 21,17 Z M3,17 C3.51283584,17 3.93550716,17.3860402 3.99327227,17.8833789 L4,18 L4,20 L6,20 L6.11662113,20.0067277 C6.61395981,20.0644928 7,20.4871642 7,21 C7,21.5128358 6.61395981,21.9355072 6.11662113,21.9932723 L6,22 L3,22 C2.48716416,22 2.06449284,21.6139598 2.00672773,21.1166211 L2,21 L2,18 L2.00672773,17.8833789 C2.06449284,17.3860402 2.48716416,17 3,17 Z M16,16 L16,17 C16,17.5522847 15.5522847,18 15,18 L9,18 C8.44771525,18 8,17.5522847 8,17 L8,16 L16,16 Z M13,8 L13,13 C13,13.5522847 12.5522847,14 12,14 L11,14 C10.4477153,14 10,13.5522847 10,13 C10,12.4871642 10.3860402,12.0644928 10.8833789,12.0067277 L11,12 L11,8 L13,8 Z M8,8 C8.55228475,8 9,8.44771525 9,9 L9,11 C9,11.5522847 8.55228475,12 8,12 C7.44771525,12 7,11.5522847 7,11 L7,9 C7,8.44771525 7.44771525,8 8,8 Z M16,8 C16.5522847,8 17,8.44771525 17,9 L17,11 C17,11.5522847 16.5522847,12 16,12 C15.4477153,12 15,11.5522847 15,11 L15,9 C15,8.44771525 15.4477153,8 16,8 Z M6,2 C6.55228475,2 7,2.44771525 7,3 C7,3.51283584 6.61395981,3.93550716 6.11662113,3.99327227 L6,4 L4,4 L4,6 C4,6.51283584 3.61395981,6.93550716 3.11662113,6.99327227 L3,7 C2.48716416,7 2.06449284,6.61395981 2.00672773,6.11662113 L2,6 L2,3 L2.00672773,2.88337887 C2.06004937,2.42429701 2.42429701,2.06004937 2.88337887,2.00672773 L3,2 L6,2 Z M21,2 C21.5128358,2 21.9355072,2.38604019 21.9932723,2.88337887 L22,3 L22,6 C22,6.55228475 21.5522847,7 21,7 C20.4871642,7 20.0644928,6.61395981 20.0067277,6.11662113 L20,6 L20,4 L18,4 L17.8833789,3.99327227 C17.3860402,3.93550716 17,3.51283584 17,3 C17,2.48716416 17.3860402,2.06449284 17.8833789,2.00672773 L18,2 L21,2 Z" id="Combined-Shape" fill="#000000" fill-rule="nonzero"></path>
    </g>
</svg>