<?xml version="1.0" encoding="UTF-8"?>
<svg width="24px" height="24px" viewBox="0 0 24 24" version="1.1" xmlns="http://www.w3.org/2000/svg" xmlns:xlink="http://www.w3.org/1999/xlink">
    <!-- Generator: Sketch 60.1 (88133) - https://sketch.com -->
    <title>Icon / Action - Sign Out</title>
    <desc>Created with Sketch.</desc>
    <g id="Icon-/-Action---Sign-Out" stroke="none" stroke-width="1" fill="none" fill-rule="evenodd">
        <rect id="bounds" x="0" y="0" width="24" height="24"></rect>
        <g id="exit_to_app-24px" transform="translate(5.000000, 3.000000)" fill="#000000" fill-rule="nonzero">
            <polygon id="Path" points="8.09 12.59 9.5 14 14.5 9 9.5 4 8.09 5.41 10.67 8 4 8 4 10 10.67 10"></polygon>
            <path d="M12,0 L2,0 C0.89,0 0,0.9 0,2 L2,2 L14,2 L14,16 L2,16 L2,2 L0,2 L0,16 C0,17.1 0.89,18 2,18 L12,18 C13.1,18 14,17.1 14,16 L14,2 C14,0.9 13.1,0 12,0 Z" id="Path"></path>
        </g>
    </g>
</svg>